<?xml version="1.0" encoding="UTF-8"?>
<!DOCTYPE svg PUBLIC "-//W3C//DTD SVG 1.1//EN" "http://www.w3.org/Graphics/SVG/1.1/DTD/svg11.dtd">
<!-- Creator: CorelDRAW -->
<svg xmlns="http://www.w3.org/2000/svg" xml:space="preserve" width="210mm" height="297mm" version="1.1" style="shape-rendering:geometricPrecision; text-rendering:geometricPrecision; image-rendering:optimizeQuality; fill-rule:evenodd; clip-rule:evenodd"
viewBox="0 0 21000 29700"
 xmlns:xlink="http://www.w3.org/1999/xlink"
 xmlns:xodm="http://www.corel.com/coreldraw/odm/2003">
 <defs>
  <style type="text/css">
   <![CDATA[
    .fil0 {fill:#FEFEFE}
   ]]>
  </style>
 </defs>
 <g id="Camada_x0020_1">
  <metadata id="CorelCorpID_0Corel-Layer"/>
  <g id="_2429934530384">
   <path class="fil0" d="M8136.39 13995.05c274,-331.66 603.04,-868 1184.34,-503.8 1104.34,691.9 1130.15,4687 2313.37,5380.11 498.62,292.09 1037.66,-127.9 1288.86,-399.45 293.97,-317.78 533.95,-716.1 757.39,-1145.8 162.79,-313.08 468.14,-970.98 549.76,-1345.83 -281.35,26.92 -422.6,177.28 -791.4,90.89 -258.23,-60.49 -372.34,-230 -521.52,-461.05 -276.96,-428.98 -435.16,-856.45 -607.65,-1369.64 -315.53,-938.81 -593.45,-2043.42 -1020.72,-2895.41 -193.05,-384.95 -536.84,-917.19 -1003.56,-970.88 -850.51,-97.84 -1475.41,1571.16 -1708.07,2199.04 -74.24,200.33 -481.71,1321.34 -440.8,1421.82z"/>
   <path class="fil0" d="M7308.81 16454.53c728.11,-1139.85 1062.28,1279.07 1224.8,1807.81 505.9,1645.93 1338.89,31.22 1556.29,-781.97 -525.72,90.09 -604.58,-2.56 -884.83,-915.38 -164.38,-535.41 -645.18,-2861.92 -1425.04,-1471.41 -112.7,200.95 -480.93,1121.58 -471.22,1360.95z"/>
  </g>
 </g>
</svg>
